#!OML:ASF H:\MichaelJackson\Top Level 1\Subject 1\Session 1\male.ASF
:FULLY-SPECIFIED
:DEGREES
277
root 5.19522 16.6431 -24.7105 8.50248 -3.56199 -4.34303
lowerback -2.14872 1.98243 -1.70891
upperback -0.816062 2.66672 3.6589
thorax 0.112343 1.34966 4.78484
lowerneck -6.36509 -0.213787 -4.30375
upperneck -7.28987 0.0295991 2.00171
head -1.20394 0.105994 1.34686
rclavicle 1.14301e-014 2.66371e-014
rhumerus -35.4568 16.3868 -88.8668
rradius 35.3473
rwrist 13.6365
rhand -19.0689 -23.9749
rfingers 7.12502
rthumb 7.23861 -53.8311
lclavicle 1.14301e-014 2.66371e-014
lhumerus -44.1493 7.80538 89.6609
lradius 40.8418
lwrist 6.74443
lhand 0.079469 10.1808
lfingers 7.12502
lthumb 25.6665 38.4706
rfemur -14.1073 -4.79376 22.1758
rtibia 32.7589
rfoot -26.1183 -2.5283
rtoes 8.79913
lfemur -36.6886 9.15785 -12.86
ltibia 46.4412
lfoot -13.8482 7.18734
ltoes 16.1873
278
root 5.22739 16.6306 -24.6446 8.35891 -3.53675 -4.47679
lowerback -2.23512 2.04197 -1.7078
upperback -0.855389 2.74707 3.69635
thorax 0.110744 1.39086 4.82711
lowerneck -6.36576 -0.297855 -4.26876
upperneck -7.18542 -0.0823518 2.05301
head -1.16697 0.0479871 1.3556
rclavicle 1.63997e-015 -2.38542e-015
rhumerus -35.5449 16.4792 -88.8022
rradius 35.5542
rwrist 13.6083
rhand -19.2088 -23.6725
rfingers 7.12502
rthumb 7.10359 -53.5333
lclavicle 1.63997e-015 -2.38542e-015
lhumerus -44.5822 8.05058 89.3949
lradius 41.037
lwrist 6.9138
lhand 0.82012 10.3999
lfingers 7.12502
lthumb 26.3757 38.5854
rfemur -13.6866 -5.11102 22.1275
rtibia 32.7361
rfoot -26.136 -2.29753
rtoes 8.60583
lfemur -36.4201 8.6029 -12.4475
ltibia 45.9483
lfoot -13.7669 7.36403
ltoes 15.0368
279
root 5.26134 16.6157 -24.577 8.20275 -3.46439 -4.60496
lowerback -2.32952 2.09532 -1.70679
upperback -0.89798 2.81922 3.73292
thorax 0.110982 1.42797 4.86879
lowerneck -6.35617 -0.389615 -4.22687
upperneck -7.07481 -0.205642 2.0999
head -1.12939 -0.0158378 1.36154
rclavicle 1.0138e-014 3.29983e-014
rhumerus -35.6662 16.5011 -88.695
rradius 35.815
rwrist 13.5794
rhand -19.3927 -23.2634
rfingers 7.12502
rthumb 6.92612 -53.1301
lclavicle 1.0138e-014 3.29983e-014
lhumerus -45.0183 8.28236 89.1177
lradius 41.2325
lwrist 7.06143
lhand 1.48004 10.5662
lfingers 7.12502
lthumb 27.0072 38.6555
rfemur -13.2811 -5.50951 22.0597
rtibia 32.7863
rfoot -26.1777 -1.96331
rtoes 8.50888
lfemur -36.1332 8.00428 -12.0527
ltibia 45.5594
lfoot -13.7211 7.42459
ltoes 13.7134
280
root 5.29742 16.5998 -24.5077 8.03436 -3.34169 -4.73016
lowerback -2.42198 2.14097 -1.69633
upperback -0.947795 2.88104 3.76745
thorax 0.104183 1.46011 4.90267
lowerneck -6.34487 -0.490665 -4.17326
upperneck -6.9495 -0.342591 2.13606
head -1.08703 -0.0867348 1.3617
rclavicle -3.42904e-015 -5.52621e-014
rhumerus -35.831 16.4425 -88.5412
rradius 36.1407
rwrist 13.5457
rhand -19.5953 -22.7663
rfingers 7.12502
rthumb 6.73052 -52.6393
lclavicle -3.42904e-015 -5.52621e-014
lhumerus -45.4541 8.49904 88.8287
lradius 41.4201
lwrist 7.18893
lhand 2.00984 10.709
lfingers 7.12502
lthumb 27.514 38.7187
rfemur -12.8946 -6.01452 21.9706
rtibia 32.9122
rfoot -26.1884 -1.57947
rtoes 8.53035
lfemur -35.8412 7.31891 -11.6535
ltibia 45.2761
lfoot -13.7164 7.38556
ltoes 12.3936
281
root 5.33596 16.5819 -24.4375 7.84773 -3.16811 -4.85411
lowerback -2.51593 2.18278 -1.67931
upperback -0.996367 2.9375 3.80429
thorax 0.100158 1.48951 4.93538
lowerneck -6.32928 -0.604563 -4.10857
upperneck -6.81508 -0.498007 2.16004
head -1.042 -0.16703 1.3557
rclavicle -6.31141e-015 1.39149e-014
rhumerus -36.0309 16.2865 -88.3186
rradius 36.5347
rwrist 13.4967
rhand -19.7813 -22.1057
rfingers 7.12502
rthumb 6.55093 -51.9844
lclavicle -6.31141e-015 1.39149e-014
lhumerus -45.8702 8.69288 88.5454
lradius 41.5936
lwrist 7.29828
lhand 2.40686 10.8203
lfingers 7.12502
lthumb 27.8936 38.7689
rfemur -12.5337 -6.62239 21.8552
rtibia 33.1385
rfoot -26.2268 -1.05169
rtoes 8.67443
lfemur -35.5229 6.53468 -11.2475
ltibia 45.1026
lfoot -13.7977 7.28837
ltoes 11.1433
282
root 5.37723 16.5636 -24.3664 7.64427 -2.93786 -4.97356
lowerback -2.60367 2.21735 -1.65674
upperback -1.04915 2.98425 3.84313
thorax 0.0894062 1.51421 4.96656
lowerneck -6.30095 -0.730518 -4.03655
upperneck -6.67683 -0.670765 2.17604
head -0.997488 -0.256103 1.34562
rclavicle 2.5196e-014 3.77691e-014
rhumerus -36.2754 16.036 -88.0235
rradius 36.9986
rwrist 13.4062
rhand -19.8282 -21.3989
rfingers 7.12502
rthumb 6.50563 -51.279
lclavicle 2.5196e-014 3.77691e-014
lhumerus -46.2712 8.86834 88.2689
lradius 41.7522
lwrist 7.39656
lhand 2.63981 10.9294
lfingers 7.12502
lthumb 28.1163 38.8417
rfemur -12.2104 -7.34803 21.7047
rtibia 33.4859
rfoot -26.2432 -0.462654
rtoes 8.83241
lfemur -35.193 5.60246 -10.8217
ltibia 45.0296
lfoot -13.9857 7.15432
ltoes 10.2099
283
root 5.42133 16.545 -24.2948 7.41949 -2.65941 -5.09353
lowerback -2.67781 2.24849 -1.62518
upperback -1.10424 3.02629 3.88672
thorax 0.069294 1.53674 4.9969
lowerneck -6.26675 -0.870229 -3.96347
upperneck -6.52649 -0.862344 2.18894
head -0.949758 -0.354603 1.334
rclavicle -4.47266e-015 1.43125e-014
rhumerus -36.5732 15.7009 -87.6523
rradius 37.5294
rwrist 13.2611
rhand -19.8223 -20.5869
rfingers 7.12502
rthumb 6.51137 -50.4668
lclavicle -4.47266e-015 1.43125e-014
lhumerus -46.649 9.02513 88.0073
lradius 41.8937
lwrist 7.4986
lhand 2.73198 11.0309
lfingers 7.12502
lthumb 28.2044 38.9287
rfemur -11.9465 -8.19274 21.5156
rtibia 33.9993
rfoot -26.2946 0.289475
rtoes 8.92353
lfemur -34.8302 4.57187 -10.389
ltibia 45.0469
lfoot -14.3053 6.99078
ltoes 9.57624
284
root 5.46827 16.5264 -24.223 7.16428 -2.34978 -5.19892
lowerback -2.73093 2.27907 -1.60471
upperback -1.15775 3.06792 3.93328
thorax 0.0382825 1.55934 5.03573
lowerneck -6.20939 -1.02047 -3.89837
upperneck -6.38084 -1.0681 2.21086
head -0.907049 -0.460051 1.32656
rclavicle -3.23025e-016 -1.70955e-014
rhumerus -36.9217 15.3046 -87.2074
rradius 38.1027
rwrist 13.0532
rhand -19.7597 -19.7019
rfingers 7.12502
rthumb 6.5718 -49.58
lclavicle -3.23025e-016 -1.70955e-014
lhumerus -46.9973 9.17315 87.7609
lradius 42.0087
lwrist 7.60726
lhand 2.6573 11.1798
lfingers 7.12502
lthumb 28.133 39.0894
rfemur -11.7551 -9.15666 21.2605
rtibia 34.7188
rfoot -26.3384 1.18432
rtoes 8.93295
lfemur -34.4433 3.44106 -9.96776
ltibia 45.1373
lfoot -14.7482 6.81364
ltoes 9.4119
